<mxfile host="app.diagrams.net" modified="2023-04-11T15:53:03.153Z" agent="Mozilla/5.0 (Windows NT 10.0; Win64; x64) AppleWebKit/537.36 (KHTML, like Gecko) Chrome/112.0.0.0 Safari/537.36" version="21.1.5" etag="qnifdM5EODAdrIFlh7AI" type="github">
  <diagram name="Page-1" id="IVhuWNRBlAkUgPsZoB0r">
    <mxGraphModel>
      <root>
        <mxCell id="0" />
        <mxCell id="1" parent="0" />
      </root>
    </mxGraphModel>
  </diagram>
</mxfile>
